# xmcd
#
# Track frame offsets:
# 150
# 11270
# 26030
# 43765
# 56442
# 76275
# 89267
# 100735
# 111575
# 124515
# 136467
# 146260
# 160042
# 171200
# 181375
# 193577
# 210562
# 223102
# 235930
# 246735
# 258977
# 272732
# 284197
# 297402
# 317382
#
# Disc length: 4579 seconds
#
#
# Revision: 0
# Processed by: cddbd v1.5.2PL0 Copyright (c) Steve Scherf et al.
# Submitted via: FreeRIP 2.52 
#
DISCID=7411e119
DTITLE=The Yardbirds - Little Games
DYEAR=1900
DGENRE=Blues
TTITLE0=Little Games
TTITLE1=Smile On me
TTITLE2=White Summer
TTITLE3=Tinker, Tailor, Soldier, Sailor
TTITLE4=Glimpses
TTITLE5=Drinking Muddy Water
TTITLE6=No Excess Baggage
TTITLE7=Stealing Stealing
TTITLE8=Only The Black Rose
TTITLE9=Little Soldier Boy
TTITLE10=Puzzles - 1991 stereo mix
TTITLE11=I Remember The Night - 1991 stereo mix
TTITLE12=Ha Ha Said The Clown
TTITLE13=Ten Little Indians - 1991 stereo mix
TTITLE14=Goodnight Sweet Josephine - unphased version
TTITLE15=Think About It
TTITLE16=Goodnight Sweet Josephine - phased version
TTITLE17=Most Likely You Go Your Way 9And I'll Go Mine) - version BBC
TTITLE18=Little Games - BBC session
TTITLE19=Drinking Muddy Water - BBCsession
TTITLE20=Think About It - BBC Session
TTITLE21=My Baby - BBC Session
TTITLE22=Goodnight Sweet Josephine - BBC Session
TTITLE23=White Summer - BBC Session
TTITLE24=Dazed And Confused -  BBC Sessiosn
EXTD=
EXTT0=
EXTT1=
EXTT2=
EXTT3=
EXTT4=
EXTT5=
EXTT6=
EXTT7=
EXTT8=
EXTT9=
EXTT10=
EXTT11=
EXTT12=
EXTT13=
EXTT14=
EXTT15=
EXTT16=
EXTT17=
EXTT18=
EXTT19=
EXTT20=
EXTT21=
EXTT22=
EXTT23=
EXTT24=
PLAYORDER=
